inDegrees=no
num_controls=7
num_derivatives=13
num_iterations=97
num_multipliers=7
num_parameters=0
num_slacks=7
num_states=26
objective=0.457512
objective_accelerations=0.039935
objective_balance=0.000722
objective_effort=0.032752
objective_height=0.377976
objective_ligament=0.006126
solver_duration=1132.690988
status=Solve_Succeeded
success=true
DataType=double
version=3
OpenSimVersion=4.5
endheader
time	/jointset/ground_pelvis/pelvis_tilt/value	/jointset/ground_pelvis/pelvis_tx/value	/jointset/ground_pelvis/pelvis_ty/value	/jointset/hip_r/hip_flexion_r/value	/jointset/hip_r/hip_adduction_r/value	/jointset/hip_r/hip_rotation_r/value	/jointset/back/lumbar_extension/value	/jointset/patellofemoral_r/patellar_flexion_r/value	/jointset/knee_r/knee_flexion_r/value	/jointset/knee_r/knee_adduction_r/value	/jointset/knee_r/knee_rotation_r/value	/jointset/ankle_r/ankle_angle_r/value	/jointset/subtalar_r/subtalar_angle_r/value	/jointset/ground_pelvis/pelvis_tilt/speed	/jointset/ground_pelvis/pelvis_tx/speed	/jointset/ground_pelvis/pelvis_ty/speed	/jointset/hip_r/hip_flexion_r/speed	/jointset/hip_r/hip_adduction_r/speed	/jointset/hip_r/hip_rotation_r/speed	/jointset/back/lumbar_extension/speed	/jointset/patellofemoral_r/patellar_flexion_r/speed	/jointset/knee_r/knee_flexion_r/speed	/jointset/knee_r/knee_adduction_r/speed	/jointset/knee_r/knee_rotation_r/speed	/jointset/ankle_r/ankle_angle_r/speed	/jointset/subtalar_r/subtalar_angle_r/speed	/forceset/tau_hip_flexion_r	/forceset/tau_hip_adduction_r	/forceset/tau_hip_rotation_r	/forceset/tau_knee_flexion_r	/forceset/tau_ankle_angle_r	/forceset/tau_subtalar_angle_r	/forceset/tau_lumbar_extension	lambda_cid13_p0	lambda_cid14_p0	lambda_cid14_p1	lambda_cid14_p2	lambda_cid14_p3	lambda_cid14_p4	lambda_cid14_p5	/jointset/ground_pelvis/pelvis_tilt/accel	/jointset/ground_pelvis/pelvis_tx/accel	/jointset/ground_pelvis/pelvis_ty/accel	/jointset/hip_r/hip_flexion_r/accel	/jointset/hip_r/hip_adduction_r/accel	/jointset/hip_r/hip_rotation_r/accel	/jointset/back/lumbar_extension/accel	/jointset/patellofemoral_r/patellar_flexion_r/accel	/jointset/knee_r/knee_flexion_r/accel	/jointset/knee_r/knee_adduction_r/accel	/jointset/knee_r/knee_rotation_r/accel	/jointset/ankle_r/ankle_angle_r/accel	/jointset/subtalar_r/subtalar_angle_r/accel	gamma_cid13_p0	gamma_cid14_p0	gamma_cid14_p1	gamma_cid14_p2	gamma_cid14_p3	gamma_cid14_p4	gamma_cid14_p5
1	-0.1546425030314708	0.0126393945486641	0.6949835491358133	1.194066890957836	-0.257493406988602	0.06801303725976117	-0.7853794494154235	1.380778694271349	1.380778694271351	0.05236521880480934	0.1745273211854371	0.4362731046586958	0.1357707746868235	0.07190699478627827	0.006208898452060389	0.01500068253311761	-0.1044972761298352	-0.001305206764755216	-0.009071165796071057	0.00289145290176774	-0.02011953750715836	-0.02011953750715836	-0.001544585797488009	-1.019787368880256e-06	0.01227645910241813	0.00326095471689323	-0.281519437837054	0.02575358757474062	0.04962865091519017	-0.4433121248474964	-0.03816848846044007	-0.01453282335121029	0.3265612783839302	-0.04179897787524121	-63.46074723257525	-20.05140853441238	6.620811558113186	8.336923237569831	-749.4034861457141	66.06294622533993	1.086545581701708	0.1460860626067409	1.452306879800235	-4.468752344045428	-0.01429000863904024	-1.370908830296144	0.1980943399493842	-4.453530675861822	-4.453530675861837	0.04819063925230748	0.003153701827090752	-1.282457265218991	-0.5663203727572386	-2.519631971098591e-11	-1.992247321589711e-09	-6.280106511830529e-09	-5.624052295558255e-11	3.757199672805409e-09	-5.294126552976998e-09	-1.262291389931104e-08
1.01	-0.1538702582687031	0.01270901288600985	0.6952059944497065	1.192799628224224	-0.25750711354107	0.06785355365647908	-0.7853376293932235	1.380355133987635	1.380355133987633	0.05235175951494833	0.1745273934738509	0.4363321270237712	0.1357753505023921	0.08249121839009282	0.007739912165538274	0.02948413414237027	-0.1489323609944017	-0.001437881596481698	-0.02282075064651854	0.005698537583767688	-0.06458694879328464	-0.06458694879328475	-0.001142133303247092	1.634464463329752e-05	-0.0004372802174939207	-0.002333468977873759	-0.2825086384292304	0.02586781129504886	0.04960745383612465	-0.4430741908343337	-0.03867391569517507	-0.01446115687712342	0.3278522772121544	-0.04179191403579485	-63.65412534098796	-20.04486013578007	6.609164253344242	8.125882132963554	-750.171315474161	66.06589159190636	1.036750000062218	0.1603822468629312	1.445725522138514	-4.427450247974668	-0.01302305577559768	-1.37626372711333	0.3559134390079949	-4.442510635988405	-4.442510635988416	0.03704373156005517	0.001155693669670078	-1.260626698252101	-0.5541571119501497	-7.558597136931118e-10	-4.563282771207506e-09	-9.294977739180858e-09	-6.391335381940445e-09	8.69446527631385e-09	-9.279117846793203e-09	-2.014615980595157e-08
1.02	-0.152993693419829	0.01279469600471932	0.6955731465238225	1.191088701903898	-0.2575222002089223	0.06755671812175261	-0.7852609589428622	1.37948706673486	1.379487066734857	0.05234247898544178	0.1745276649825385	0.4362650531091067	0.1357243513321904	0.09277101200754086	0.009421854724804413	0.04394203457764936	-0.1932299934714666	-0.001581229841654431	-0.03654155208473778	0.009861538533074411	-0.1090209313194254	-0.1090209313194256	-0.0007088337270033332	3.882426795290726e-05	-0.012942796852397	-0.007854042437190671	-0.2834978390214359	0.02598203501535419	0.04958625675705045	-0.4428362568211738	-0.03917934292990739	-0.01438949040304061	0.3291432760403522	-0.04179107406590088	-63.856084341717	-20.0368543631289	6.593904115113468	7.922442633334819	-751.0903097201605	66.07314461871627	1.025659584428399	0.1762718317643949	1.447196645005523	-4.441261866545143	-0.01642469132829042	-1.365152147850495	0.4692775934107127	-4.446844923864715	-4.446844923864722	0.05436005565287667	0.004176740090575833	-1.240812728217192	-0.5515503256672211	-1.290534990913139e-09	-4.756408384363467e-09	-8.884434094747945e-09	-1.337375926301574e-08	8.490278144983625e-09	-1.251477193290758e-08	-2.091468535727159e-08
1.03	-0.1520158369864098	0.01289781966178952	0.696084715712084	1.188935679376524	-0.2575387254557434	0.06712287467823576	-0.7851365867015095	1.378174714431713	1.378174714431712	0.05233771619753671	0.1745281494458057	0.4360736342179977	0.1356184754432148	0.1027489704468291	0.01121472805150669	0.05836383854270612	-0.2373298262885205	-0.001721002988328167	-0.05021710288430895	0.01517114086776369	-0.1534549916746284	-0.1534549916746284	-0.0002355535718919201	5.589101372190604e-05	-0.02533956968309782	-0.01331341888377448	-0.2837855013491801	0.02606016302867839	0.04954308905831944	-0.4423644707076424	-0.03967905997963344	-0.01430969434828077	0.3297166626345925	-0.04180861984162094	-64.02404896649843	-20.01356658346429	6.569583226829948	7.922153969523558	-751.4097748320992	66.06729849266932	0.976168377506177	0.1825744326701026	1.438474424346704	-4.387641490597967	-0.01233354708430072	-1.367254155825368	0.5855362229847212	-4.442505578166783	-4.442505578166762	0.04503864896357935	0.0001400418446501222	-1.238897945055607	-0.5419775287003203	-1.823210389390695e-09	-4.925269611433068e-09	-8.438937237337631e-09	-2.036278854227564e-08	8.233627210236648e-09	-1.574277972098417e-08	-2.161428519068014e-08
1.04	-0.1509397400878322	0.01301922792203616	0.6967402633704143	1.186342999020721	-0.2575565644181803	0.06655257620476075	-0.7849543715029109	1.37641785772765	1.37641785772765	0.05233793154188749	0.1745287382565387	0.4357582899216682	0.1354582365448642	0.1124191050392031	0.01307877536009346	0.07273772859140341	-0.2811615591580719	-0.001843972964899571	-0.06383255807647818	0.02143012998191973	-0.1979218115025785	-0.1979218115025785	0.0002867927241514552	5.96937604760101e-05	-0.03772787789616139	-0.01872664431221351	-0.2840731636769114	0.02613829104200748	0.04949992135959228	-0.4418926845941097	-0.04017877702935955	-0.01422989829351182	0.3302900492288443	-0.04183212724600152	-64.2006561646062	-19.98892066410127	6.541766335428688	7.92779646566527	-751.8817804191855	66.06579140879104	0.9640948150455197	0.1905066281413061	1.43761386173363	-4.387641877044663	-0.01306405730782554	-1.353133026370106	0.6591549493040507	-4.453396818414126	-4.453396818414157	0.06417328383927023	0.001523940287596385	-1.23911980468972	-0.542320122038258	-2.496640089157669e-09	-6.017158055410636e-09	-9.933699540118246e-09	-2.607491846692928e-08	9.962020979600072e-09	-1.856444970655214e-08	-2.665577303230103e-08
1.05	-0.149768244433939	0.01315966660335934	0.6975392746286179	1.183313151968365	-0.257575529666451	0.06584643912448981	-0.7847050485412849	1.374216276105968	1.374216276105966	0.0523435681520845	0.1745292904191553	0.4353191810242782	0.1352441835689151	0.1218503500907422	0.01502425290662252	0.08705275918621039	-0.3247800135778159	-0.001944498106924063	-0.07738321334982164	0.02857253161913112	-0.2423893520542378	-0.242389352054238	0.0008443871392864196	4.805573976103314e-05	-0.05008515768964317	-0.02406802269088963	-0.2841202303449507	0.02615872624150059	0.04943330252537557	-0.4411298378851556	-0.04054323716064379	-0.01414045058921672	0.3306612581928531	-0.04185874459966835	-64.30497942465179	-19.94096228226913	6.502848607646619	7.868051715784387	-751.9711073928182	66.0519874825203	0.9281880476647523	0.1988644868317083	1.426678775830131	-4.344772067277235	-0.007863710322816256	-1.354289334236523	0.7624931622748087	-4.442657914843683	-4.442657914843674	0.0521330281239769	-0.002917789855185767	-1.232720701343994	-0.5276629893558625	-3.174468360839937e-09	-7.137891099916574e-09	-1.148909494165482e-08	-3.174714528675147e-08	1.175244739596694e-08	-2.137342163579172e-08	-3.183294487417853e-08
1.06	-0.1485033265900391	0.01332001929393242	0.6984810824162649	1.179847955403245	-0.2575953635596765	0.06500514398020295	-0.784380159485017	1.371570174030509	1.371570174030506	0.05235489680798572	0.1745296441782526	0.4347567616020189	0.1349771935504645	0.1311035430405471	0.01706157721007663	0.1012970344800544	-0.3682314617110781	-0.00201770195587387	-0.09086417087996791	0.03654334891014701	-0.2868259022579704	-0.2868259022579706	0.001425201865355762	2.001305488189387e-05	-0.06238998286978804	-0.02931405281250949	-0.2841672970129877	0.02617916144100088	0.04936668369116955	-0.4403669911762008	-0.04090769729192605	-0.01405100288490752	0.3310324671568634	-0.04189090282910379	-64.41807838132497	-19.89175110983099	6.460545381943594	7.813429174309459	-752.2145646449131	66.04280867255687	0.9284843946986874	0.2088759795263294	1.423462801541035	-4.354240619748298	-0.007599798692893804	-1.339193477730677	0.824838080064943	-4.447198748828774	-4.447198748828778	0.06881734602614865	-0.001756992545226045	-1.228628882022315	-0.5232504706270076	-3.988376678087236e-09	-7.984279864182292e-09	-1.361024753729725e-08	-3.887250582078059e-08	1.297223128640693e-08	-2.378222795440331e-08	-3.713268945611525e-08
